<!-- All icons are SVG and come from https://icons.getbootstrap.com/ -->
<svg xmlns="http://www.w3.org/2000/svg" width="16" height="16" fill="currentColor">
<defs>
<symbol id="icon-search" viewBox="0 0 16 16">
  <path d="M11.742 10.344a6.5 6.5 0 1 0-1.397 1.398h-.001c.03.04.062.078.098.115l3.85 3.85a1 1 0 0 0 1.415-1.414l-3.85-3.85a1.007 1.007 0 0 0-.115-.1zM12 6.5a5.5 5.5 0 1 1-11 0 5.5 5.5 0 0 1 11 0z"/>
</symbol>
<symbol id="icon-bookmark" viewBox="0 0 16 16">
  <path d="M7.84 4.1a.178.178 0 0 1 .32 0l.634 1.285a.178.178 0 0 0 .134.098l1.42.206c.145.021.204.2.098.303L9.42 6.993a.178.178 0 0 0-.051.158l.242 1.414a.178.178 0 0 1-.258.187l-1.27-.668a.178.178 0 0 0-.165 0l-1.27.668a.178.178 0 0 1-.257-.187l.242-1.414a.178.178 0 0 0-.05-.158l-1.03-1.001a.178.178 0 0 1 .098-.303l1.42-.206a.178.178 0 0 0 .134-.098L7.84 4.1z"/>
  <path d="M2 2a2 2 0 0 1 2-2h8a2 2 0 0 1 2 2v13.5a.5.5 0 0 1-.777.416L8 13.101l-5.223 2.815A.5.5 0 0 1 2 15.5V2zm2-1a1 1 0 0 0-1 1v12.566l4.723-2.482a.5.5 0 0 1 .554 0L13 14.566V2a1 1 0 0 0-1-1H4z"/>
</symbol>
<symbol id="icon-add-recipe" viewBox="0 0 16 16">
  <path d="M15.502 1.94a.5.5 0 0 1 0 .706L14.459 3.69l-2-2L13.502.646a.5.5 0 0 1 .707 0l1.293 1.293zm-1.75 2.456-2-2L4.939 9.21a.5.5 0 0 0-.121.196l-.805 2.414a.25.25 0 0 0 .316.316l2.414-.805a.5.5 0 0 0 .196-.12l6.813-6.814z"/>
  <path fill-rule="evenodd" d="M1 13.5A1.5 1.5 0 0 0 2.5 15h11a1.5 1.5 0 0 0 1.5-1.5v-6a.5.5 0 0 0-1 0v6a.5.5 0 0 1-.5.5h-11a.5.5 0 0 1-.5-.5v-11a.5.5 0 0 1 .5-.5H9a.5.5 0 0 0 0-1H2.5A1.5 1.5 0 0 0 1 2.5v11z"/>
</symbol>
<symbol id="icon-enjoy" viewBox="0 0 16 16">
  <path d="M8 15A7 7 0 1 1 8 1a7 7 0 0 1 0 14zm0 1A8 8 0 1 0 8 0a8 8 0 0 0 0 16z"/>
  <path d="M12.331 9.5a1 1 0 0 1 0 1A4.998 4.998 0 0 1 8 13a4.998 4.998 0 0 1-4.33-2.5A1 1 0 0 1 4.535 9h6.93a1 1 0 0 1 .866.5zM7 6.5c0 .828-.448 0-1 0s-1 .828-1 0S5.448 5 6 5s1 .672 1 1.5zm4 0c0 .828-.448 0-1 0s-1 .828-1 0S9.448 5 10 5s1 .672 1 1.5z"/>
</symbol>
<symbol id="icon-upside-down-smile" viewBox="0 0 16 16">
  <path d="M8 1a7 7 0 1 0 0 14A7 7 0 0 0 8 1zm0-1a8 8 0 1 1 0 16A8 8 0 0 1 8 0z"/>
  <path d="M4.285 6.433a.5.5 0 0 0 .683-.183A3.498 3.498 0 0 1 8 4.5c1.295 0 2.426.703 3.032 1.75a.5.5 0 0 0 .866-.5A4.498 4.498 0 0 0 8 3.5a4.5 4.5 0 0 0-3.898 2.25.5.5 0 0 0 .183.683zM7 9.5C7 8.672 6.552 8 6 8s-1 .672-1 1.5.448 1.5 1 1.5 1-.672 1-1.5zm4 0c0-.828-.448-1.5-1-1.5s-1 .672-1 1.5.448 1.5 1 1.5 1-.672 1-1.5z"/>
</symbol>
</defs>
</svg>