<!-- All icons are SVG and come from https://icons.getbootstrap.com/ -->
<svg xmlns="http://www.w3.org/2000/svg" width="16" height="16" fill="currentColor">
<defs>
<symbol id="icon-search" viewBox="0 0 16 16">
  <path d="M11.742 10.344a6.5 6.5 0 1 0-1.397 1.398h-.001c.03.04.062.078.098.115l3.85 3.85a1 1 0 0 0 1.415-1.414l-3.85-3.85a1.007 1.007 0 0 0-.115-.1zM12 6.5a5.5 5.5 0 1 1-11 0 5.5 5.5 0 0 1 11 0z"></path>
</symbol>
<symbol id="icon-bookmark" viewBox="0 0 16 16">
  <path d="M7.84 4.1a.178.178 0 0 1 .32 0l.634 1.285a.178.178 0 0 0 .134.098l1.42.206c.145.021.204.2.098.303L9.42 6.993a.178.178 0 0 0-.051.158l.242 1.414a.178.178 0 0 1-.258.187l-1.27-.668a.178.178 0 0 0-.165 0l-1.27.668a.178.178 0 0 1-.257-.187l.242-1.414a.178.178 0 0 0-.05-.158l-1.03-1.001a.178.178 0 0 1 .098-.303l1.42-.206a.178.178 0 0 0 .134-.098L7.84 4.1z"></path>
  <path d="M2 2a2 2 0 0 1 2-2h8a2 2 0 0 1 2 2v13.5a.5.5 0 0 1-.777.416L8 13.101l-5.223 2.815A.5.5 0 0 1 2 15.5V2zm2-1a1 1 0 0 0-1 1v12.566l4.723-2.482a.5.5 0 0 1 .554 0L13 14.566V2a1 1 0 0 0-1-1H4z"></path>
</symbol>
<symbol id="icon-add-recipe" viewBox="0 0 16 16">
  <path d="M15.502 1.94a.5.5 0 0 1 0 .706L14.459 3.69l-2-2L13.502.646a.5.5 0 0 1 .707 0l1.293 1.293zm-1.75 2.456-2-2L4.939 9.21a.5.5 0 0 0-.121.196l-.805 2.414a.25.25 0 0 0 .316.316l2.414-.805a.5.5 0 0 0 .196-.12l6.813-6.814z"></path>
  <path fill-rule="evenodd" d="M1 13.5A1.5 1.5 0 0 0 2.5 15h11a1.5 1.5 0 0 0 1.5-1.5v-6a.5.5 0 0 0-1 0v6a.5.5 0 0 1-.5.5h-11a.5.5 0 0 1-.5-.5v-11a.5.5 0 0 1 .5-.5H9a.5.5 0 0 0 0-1H2.5A1.5 1.5 0 0 0 1 2.5v11z"></path>
</symbol>
<symbol id="icon-enjoy" viewBox="0 0 16 16">
  <path d="M8 15A7 7 0 1 1 8 1a7 7 0 0 1 0 14zm0 1A8 8 0 1 0 8 0a8 8 0 0 0 0 16z"></path>
  <path d="M12.331 9.5a1 1 0 0 1 0 1A4.998 4.998 0 0 1 8 13a4.998 4.998 0 0 1-4.33-2.5A1 1 0 0 1 4.535 9h6.93a1 1 0 0 1 .866.5zM7 6.5c0 .828-.448 0-1 0s-1 .828-1 0S5.448 5 6 5s1 .672 1 1.5zm4 0c0 .828-.448 0-1 0s-1 .828-1 0S9.448 5 10 5s1 .672 1 1.5z"></path>
</symbol>
<symbol id="icon-upside-down-smile" viewBox="0 0 16 16">
  <path d="M8 1a7 7 0 1 0 0 14A7 7 0 0 0 8 1zm0-1a8 8 0 1 1 0 16A8 8 0 0 1 8 0z"></path>
  <path d="M4.285 6.433a.5.5 0 0 0 .683-.183A3.498 3.498 0 0 1 8 4.5c1.295 0 2.426.703 3.032 1.75a.5.5 0 0 0 .866-.5A4.498 4.498 0 0 0 8 3.5a4.5 4.5 0 0 0-3.898 2.25.5.5 0 0 0 .183.683zM7 9.5C7 8.672 6.552 8 6 8s-1 .672-1 1.5.448 1.5 1 1.5 1-.672 1-1.5zm4 0c0-.828-.448-1.5-1-1.5s-1 .672-1 1.5.448 1.5 1 1.5 1-.672 1-1.5z"></path>
</symbol>
<symbol id="icon-clock" viewBox="0 0 16 16">
  <path d="M8 3.5a.5.5 0 0 0-1 0V9a.5.5 0 0 0 .252.434l3.5 2a.5.5 0 0 0 .496-.868L8 8.71V3.5z"></path>
  <path d="M8 16A8 8 0 1 0 8 0a8 8 0 0 0 0 16zm7-8A7 7 0 1 1 1 8a7 7 0 0 1 14 0z"></path>
</symbol>
<symbol id="icon-servings" viewBox="0 0 16 16">
  <path d="M7 14s-1 0-1-1 1-4 5-4 5 3 5 4-1 1-1 1H7Zm4-6a3 3 0 1 0 0-6 3 3 0 0 0 0 6Zm-5.784 6A2.238 2.238 0 0 1 5 13c0-1.355.68-2.75 1.936-3.72A6.325 6.325 0 0 0 5 9c-4 0-5 3-5 4s1 1 1 1h4.216ZM4.5 8a2.5 2.5 0 1 0 0-5 2.5 2.5 0 0 0 0 5Z"></path>
</symbol>
<symbol id="icon-check" viewBox="0 0 16 16">
  <path d="M12.736 3.97a.733.733 0 0 1 1.047 0c.286.289.29.756.01 1.05L7.88 12.01a.733.733 0 0 1-1.065.02L3.217 8.384a.757.757 0 0 1 0-1.06.733.733 0 0 1 1.047 0l3.052 3.093 5.4-6.425a.247.247 0 0 1 .02-.022Z"></path>
</symbol>
<symbol id="icon-minus-circle" viewBox="0 0 16 16">
  <path d="M8 15A7 7 0 1 1 8 1a7 7 0 0 1 0 14zm0 1A8 8 0 1 0 8 0a8 8 0 0 0 0 16z"></path>
  <path d="M4 8a.5.5 0 0 1 .5-.5h7a.5.5 0 0 1 0 1h-7A.5.5 0 0 1 4 8z"></path>
</symbol>
<symbol id="icon-plus-circle" viewBox="0 0 16 16">
  <path d="M8 15A7 7 0 1 1 8 1a7 7 0 0 1 0 14zm0 1A8 8 0 1 0 8 0a8 8 0 0 0 0 16z"></path>
  <path d="M8 4a.5.5 0 0 1 .5.5v3h3a.5.5 0 0 1 0 1h-3v3a.5.5 0 0 1-1 0v-3h-3a.5.5 0 0 1 0-1h3v-3A.5.5 0 0 1 8 4z"></path>
</symbol>
<symbol id="icon-user" viewBox="0 0 16 16">
  <path d="M8 8a3 3 0 1 0 0-6 3 3 0 0 0 0 6Zm2-3a2 2 0 1 1-4 0 2 2 0 0 1 4 0Zm4 8c0 1-1 1-1 1H3s-1 0-1-1 1-4 6-4 6 3 6 4Zm-1-.004c-.001-.246-.154-.986-.832-1.664C11.516 10.68 10.289 10 8 10c-2.29 0-3.516.68-4.168 1.332-.678.678-.83 1.418-.832 1.664h10Z"></path>
</symbol>
<symbol id="icon-loader" viewBox="0 0 24 24">
  <path d="M11 2v4c0 0.552 0.448 1 1 1s1-0.448 1-1v-4c0-0.552-0.448-1-1-1s-1 0.448-1 1zM11 18v4c0 0.552 0.448 1 1 1s1-0.448 1-1v-4c0-0.552-0.448-1-1-1s-1 0.448-1 1zM4.223 5.637l2.83 2.83c0.391 0.391 1.024 0.391 1.414 0s0.391-1.024 0-1.414l-2.83-2.83c-0.391-0.391-1.024-0.391-1.414 0s-0.391 1.024 0 1.414zM15.533 16.947l2.83 2.83c0.391 0.391 1.024 0.391 1.414 0s0.391-1.024 0-1.414l-2.83-2.83c-0.391-0.391-1.024-0.391-1.414 0s-0.391 1.024 0 1.414zM2 13h4c0.552 0 1-0.448 1-1s-0.448-1-1-1h-4c-0.552 0-1 0.448-1 1s0.448 1 1 1zM18 13h4c0.552 0 1-0.448 1-1s-0.448-1-1-1h-4c-0.552 0-1 0.448-1 1s0.448 1 1 1zM5.637 19.777l2.83-2.83c0.391-0.391 0.391-1.024 0-1.414s-1.024-0.391-1.414 0l-2.83 2.83c-0.391 0.391-0.391 1.024 0 1.414s1.024 0.391 1.414 0zM16.947 8.467l2.83-2.83c0.391-0.391 0.391-1.024 0-1.414s-1.024-0.391-1.414 0l-2.83 2.83c-0.391 0.391-0.391 1.024 0 1.414s1.024 0.391 1.414 0z"></path>
</symbol>

</defs>
</svg>